<?xml version="1.0" encoding="UTF-8"?>
<svg xmlns="http://www.w3.org/2000/svg" width="960" height="620" viewBox="0 0 960 620"><defs><radialGradient id="knob" cx="38%" cy="30%" r="78%"><stop offset="0%" stop-color="#2c3136"/><stop offset="55%" stop-color="#1d2125"/><stop offset="100%" stop-color="#141619"/></radialGradient><radialGradient id="bakelite" cx="34%" cy="26%" r="82%"><stop offset="0%" stop-color="#3a3e44"/><stop offset="55%" stop-color="#20242a"/><stop offset="100%" stop-color="#0c0e11"/></radialGradient><radialGradient id="chrome" cx="36%" cy="30%" r="72%"><stop offset="0%" stop-color="#f4f0e6"/><stop offset="55%" stop-color="#8f897d"/><stop offset="100%" stop-color="#4a463f"/></radialGradient><linearGradient id="plate" x1="0%" y1="0%" x2="100%" y2="100%"><stop offset="0%" stop-color="#262a30"/><stop offset="100%" stop-color="#171a1e"/></linearGradient></defs><rect x="0.0" y="0.0" width="960.0" height="620.0" rx="0" fill="#101214"/><rect x="0.0" y="0.0" width="960.0" height="54.0" rx="4" fill="#181a1d"/><line x1="0.00" y1="54.00" x2="960.00" y2="54.00" stroke="#000000" stroke-width="1" stroke-linecap="round" opacity="0.5"/><line x1="0.00" y1="55.00" x2="960.00" y2="55.00" stroke="#ffffff" stroke-width="1" stroke-linecap="round" opacity="0.04"/><text x="16.0" y="26.0" font-family="Segoe UI, DejaVu Sans, Verdana, sans-serif" font-size="20.0" fill="#e7e0d1" text-anchor="start" font-weight="700">PRA32</text><text x="16.0" y="42.0" font-family="Segoe UI, DejaVu Sans, Verdana, sans-serif" font-size="9.0" fill="#d99a3f" text-anchor="start" letter-spacing="1.5">C O L O R C O D E R</text><rect x="280.0" y="12.0" width="400.0" height="30.0" rx="3" fill="#131518" stroke="#2b2f33" stroke-width="1"/><text x="306.0" y="32.0" font-family="Segoe UI, DejaVu Sans, Verdana, sans-serif" font-size="16.0" fill="#9a948a" text-anchor="middle">‹</text><text x="654.0" y="32.0" font-family="Segoe UI, DejaVu Sans, Verdana, sans-serif" font-size="16.0" fill="#9a948a" text-anchor="middle">›</text><text x="480.0" y="27.0" font-family="Consolas, DejaVu Sans Mono, Courier New, monospace" font-size="14.0" fill="#e7e0d1" text-anchor="middle" font-weight="bold">08  ETHEREAL PAD</text><text x="480.0" y="39.0" font-family="Segoe UI, DejaVu Sans, Verdana, sans-serif" font-size="8.0" fill="#6a655d" text-anchor="middle" letter-spacing="1.2">FACTORY PRESET</text><rect x="660.0" y="14.0" width="92.0" height="26.0" rx="3" fill="#202327" stroke="#2b2f33" stroke-width="1"/><text x="706.0" y="31.0" font-family="Segoe UI, DejaVu Sans, Verdana, sans-serif" font-size="9.0" fill="#9a948a" text-anchor="middle">LOAD JSON</text><rect x="760.0" y="14.0" width="92.0" height="26.0" rx="3" fill="#202327" stroke="#2b2f33" stroke-width="1"/><text x="806.0" y="31.0" font-family="Segoe UI, DejaVu Sans, Verdana, sans-serif" font-size="9.0" fill="#9a948a" text-anchor="middle">SAVE JSON</text><rect x="864.0" y="14.0" width="56.0" height="26.0" rx="3" fill="#202327" stroke="#b07fb0" stroke-width="1"/><text x="892.0" y="31.0" font-family="Segoe UI, DejaVu Sans, Verdana, sans-serif" font-size="9.0" fill="#b07fb0" text-anchor="middle">KEYS</text><rect x="14.0" y="62.0" width="152.0" height="32.0" rx="3" fill="#181a1d" stroke="#2b2f33" stroke-width="1"/><circle cx="24.00" cy="78.00" r="2.60" fill="#2a2d30"/><text x="34.0" y="82.0" font-family="Segoe UI, DejaVu Sans, Verdana, sans-serif" font-size="12.0" fill="#9a948a" text-anchor="start">OSC</text><rect x="170.0" y="62.0" width="152.0" height="32.0" rx="3" fill="#181a1d" stroke="#2b2f33" stroke-width="1"/><circle cx="180.00" cy="78.00" r="2.60" fill="#2a2d30"/><text x="190.0" y="82.0" font-family="Segoe UI, DejaVu Sans, Verdana, sans-serif" font-size="12.0" fill="#9a948a" text-anchor="start">FILTER</text><rect x="326.0" y="62.0" width="152.0" height="32.0" rx="3" fill="#181a1d" stroke="#2b2f33" stroke-width="1"/><circle cx="336.00" cy="78.00" r="2.60" fill="#2a2d30"/><text x="346.0" y="82.0" font-family="Segoe UI, DejaVu Sans, Verdana, sans-serif" font-size="12.0" fill="#9a948a" text-anchor="start">ENVS</text><rect x="482.0" y="62.0" width="152.0" height="32.0" rx="3" fill="#181a1d" stroke="#2b2f33" stroke-width="1"/><circle cx="492.00" cy="78.00" r="2.60" fill="#2a2d30"/><text x="502.0" y="82.0" font-family="Segoe UI, DejaVu Sans, Verdana, sans-serif" font-size="12.0" fill="#9a948a" text-anchor="start">MOD</text><rect x="638.0" y="62.0" width="152.0" height="32.0" rx="3" fill="#181a1d" stroke="#2b2f33" stroke-width="1"/><circle cx="648.00" cy="78.00" r="2.60" fill="#2a2d30"/><text x="658.0" y="82.0" font-family="Segoe UI, DejaVu Sans, Verdana, sans-serif" font-size="12.0" fill="#9a948a" text-anchor="start">FX</text><rect x="794.0" y="62.0" width="152.0" height="32.0" rx="3" fill="#202327" stroke="#b07fb0" stroke-width="1.2"/><circle cx="804.00" cy="78.00" r="5.00" fill="#b07fb0" opacity="0.22"/><circle cx="804.00" cy="78.00" r="2.60" fill="#b07fb0"/><circle cx="804.00" cy="78.00" r="1.17" fill="#f2efe6"/><text x="814.0" y="82.0" font-family="Segoe UI, DejaVu Sans, Verdana, sans-serif" font-size="12.0" fill="#e7e0d1" text-anchor="start" font-weight="600">COLOR</text><rect x="12.0" y="102.0" width="456.0" height="418.0" rx="5" fill="url(#plate)" stroke="#0a0b0c" stroke-width="1.2"/><line x1="19.00" y1="103.50" x2="461.00" y2="103.50" stroke="#ffffff" stroke-width="1" stroke-linecap="round" opacity="0.08"/><line x1="19.00" y1="518.50" x2="461.00" y2="518.50" stroke="#000000" stroke-width="1.6" stroke-linecap="round" opacity="0.45"/><circle cx="21.50" cy="111.50" r="3.00" fill="#000000" opacity="0.4"/><circle cx="21.00" cy="111.00" r="3.00" fill="#b3ac9a" stroke="#000000" stroke-width="0.6"/><circle cx="20.10" cy="110.10" r="1.05" fill="#f4f0e6" opacity="0.5"/><line x1="19.20" y1="109.20" x2="22.80" y2="112.80" stroke="#3a362f" stroke-width="0.9" stroke-linecap="round"/><circle cx="459.50" cy="111.50" r="3.00" fill="#000000" opacity="0.4"/><circle cx="459.00" cy="111.00" r="3.00" fill="#b3ac9a" stroke="#000000" stroke-width="0.6"/><circle cx="458.10" cy="110.10" r="1.05" fill="#f4f0e6" opacity="0.5"/><line x1="457.20" y1="109.20" x2="460.80" y2="112.80" stroke="#3a362f" stroke-width="0.9" stroke-linecap="round"/><circle cx="21.50" cy="511.50" r="3.00" fill="#000000" opacity="0.4"/><circle cx="21.00" cy="511.00" r="3.00" fill="#b3ac9a" stroke="#000000" stroke-width="0.6"/><circle cx="20.10" cy="510.10" r="1.05" fill="#f4f0e6" opacity="0.5"/><line x1="19.20" y1="509.20" x2="22.80" y2="512.80" stroke="#3a362f" stroke-width="0.9" stroke-linecap="round"/><circle cx="459.50" cy="511.50" r="3.00" fill="#000000" opacity="0.4"/><circle cx="459.00" cy="511.00" r="3.00" fill="#b3ac9a" stroke="#000000" stroke-width="0.6"/><circle cx="458.10" cy="510.10" r="1.05" fill="#f4f0e6" opacity="0.5"/><line x1="457.20" y1="509.20" x2="460.80" y2="512.80" stroke="#3a362f" stroke-width="0.9" stroke-linecap="round"/><rect x="443.0" y="110.0" width="10.0" height="10.0" rx="2" fill="#0a0c0e" stroke="#000000" stroke-width="1"/><circle cx="448.00" cy="115.00" r="3.00" fill="#b07fb0" opacity="0.85"/><text x="30.0" y="117.0" font-family="Segoe UI, DejaVu Sans, Verdana, sans-serif" font-size="12.5" fill="#000000" text-anchor="start" font-weight="700">VOICE</text><text x="30.0" y="116.0" font-family="Segoe UI, DejaVu Sans, Verdana, sans-serif" font-size="12.5" fill="#e7e0d1" text-anchor="start" font-weight="700">VOICE</text><line x1="22.00" y1="123.00" x2="458.00" y2="123.00" stroke="#000000" stroke-width="1" stroke-linecap="round" opacity="0.4"/><text x="120.0" y="225.0" font-family="Segoe UI, DejaVu Sans, Verdana, sans-serif" font-size="9.5" fill="#000000" text-anchor="middle" font-weight="600">VOICE MODE</text><text x="120.0" y="224.0" font-family="Segoe UI, DejaVu Sans, Verdana, sans-serif" font-size="9.5" fill="#9a948a" text-anchor="middle" font-weight="600">VOICE MODE</text><rect x="26.0" y="230.0" width="188.0" height="34.0" rx="3" fill="#0a0c0e" stroke="#000000" stroke-width="1"/><rect x="30.0" y="234.0" width="28.3" height="26.0" rx="3" fill="#b07fb0"/><line x1="33.00" y1="235.00" x2="55.33" y2="235.00" stroke="#000000" stroke-width="1.4" stroke-linecap="round" opacity="0.35"/><text x="44.2" y="250.0" font-family="Consolas, DejaVu Sans Mono, Courier New, monospace" font-size="7.8" fill="#000000" text-anchor="middle">POLY</text><rect x="60.3" y="234.0" width="28.3" height="26.0" rx="3" fill="#202327" stroke="#2b2f33" stroke-width="1"/><line x1="63.33" y1="235.50" x2="85.67" y2="235.50" stroke="#ffffff" stroke-width="1.0" stroke-linecap="round" opacity="0.08"/><text x="74.5" y="250.0" font-family="Consolas, DejaVu Sans Mono, Courier New, monospace" font-size="7.8" fill="#e7e0d1" text-anchor="middle">POLY</text><rect x="90.7" y="234.0" width="28.3" height="26.0" rx="3" fill="#202327" stroke="#2b2f33" stroke-width="1"/><line x1="93.67" y1="235.50" x2="116.00" y2="235.50" stroke="#ffffff" stroke-width="1.0" stroke-linecap="round" opacity="0.08"/><text x="104.8" y="250.0" font-family="Consolas, DejaVu Sans Mono, Courier New, monospace" font-size="7.8" fill="#e7e0d1" text-anchor="middle">MONO</text><rect x="121.0" y="234.0" width="28.3" height="26.0" rx="3" fill="#202327" stroke="#2b2f33" stroke-width="1"/><line x1="124.00" y1="235.50" x2="146.33" y2="235.50" stroke="#ffffff" stroke-width="1.0" stroke-linecap="round" opacity="0.08"/><text x="135.2" y="250.0" font-family="Consolas, DejaVu Sans Mono, Courier New, monospace" font-size="7.8" fill="#e7e0d1" text-anchor="middle">MONO</text><rect x="151.3" y="234.0" width="28.3" height="26.0" rx="3" fill="#202327" stroke="#2b2f33" stroke-width="1"/><line x1="154.33" y1="235.50" x2="176.67" y2="235.50" stroke="#ffffff" stroke-width="1.0" stroke-linecap="round" opacity="0.08"/><text x="165.5" y="250.0" font-family="Consolas, DejaVu Sans Mono, Courier New, monospace" font-size="7.8" fill="#e7e0d1" text-anchor="middle">LGTO P</text><rect x="181.7" y="234.0" width="28.3" height="26.0" rx="3" fill="#202327" stroke="#2b2f33" stroke-width="1"/><line x1="184.67" y1="235.50" x2="207.00" y2="235.50" stroke="#ffffff" stroke-width="1.0" stroke-linecap="round" opacity="0.08"/><text x="195.8" y="250.0" font-family="Consolas, DejaVu Sans Mono, Courier New, monospace" font-size="7.8" fill="#e7e0d1" text-anchor="middle">LEGATO</text><text x="324.0" y="225.0" font-family="Segoe UI, DejaVu Sans, Verdana, sans-serif" font-size="9.5" fill="#000000" text-anchor="middle" font-weight="600">VOICE ASSIGN</text><text x="324.0" y="224.0" font-family="Segoe UI, DejaVu Sans, Verdana, sans-serif" font-size="9.5" fill="#9a948a" text-anchor="middle" font-weight="600">VOICE ASSIGN</text><rect x="242.0" y="230.0" width="164.0" height="34.0" rx="3" fill="#0a0c0e" stroke="#000000" stroke-width="1"/><rect x="246.0" y="234.0" width="77.0" height="26.0" rx="3" fill="#b07fb0"/><line x1="249.00" y1="235.00" x2="320.00" y2="235.00" stroke="#000000" stroke-width="1.4" stroke-linecap="round" opacity="0.35"/><text x="284.5" y="250.0" font-family="Consolas, DejaVu Sans Mono, Courier New, monospace" font-size="7.8" fill="#000000" text-anchor="middle">MODE 1</text><rect x="325.0" y="234.0" width="77.0" height="26.0" rx="3" fill="#202327" stroke="#2b2f33" stroke-width="1"/><line x1="328.00" y1="235.50" x2="399.00" y2="235.50" stroke="#ffffff" stroke-width="1.0" stroke-linecap="round" opacity="0.08"/><text x="363.5" y="250.0" font-family="Consolas, DejaVu Sans Mono, Courier New, monospace" font-size="7.8" fill="#e7e0d1" text-anchor="middle">MODE 2</text><text x="256.0" y="407.0" font-family="Segoe UI, DejaVu Sans, Verdana, sans-serif" font-size="9.5" fill="#000000" text-anchor="middle" font-weight="600">BREATH AMP</text><text x="256.0" y="406.0" font-family="Segoe UI, DejaVu Sans, Verdana, sans-serif" font-size="9.5" fill="#9a948a" text-anchor="middle" font-weight="600">BREATH AMP</text><rect x="170.0" y="412.0" width="172.0" height="34.0" rx="3" fill="#0a0c0e" stroke="#000000" stroke-width="1"/><rect x="174.0" y="416.0" width="53.3" height="26.0" rx="3" fill="#b07fb0"/><line x1="177.00" y1="417.00" x2="224.33" y2="417.00" stroke="#000000" stroke-width="1.4" stroke-linecap="round" opacity="0.35"/><text x="200.7" y="432.0" font-family="Consolas, DejaVu Sans Mono, Courier New, monospace" font-size="7.8" fill="#000000" text-anchor="middle">OFF</text><rect x="229.3" y="416.0" width="53.3" height="26.0" rx="3" fill="#202327" stroke="#2b2f33" stroke-width="1"/><line x1="232.33" y1="417.50" x2="279.67" y2="417.50" stroke="#ffffff" stroke-width="1.0" stroke-linecap="round" opacity="0.08"/><text x="256.0" y="432.0" font-family="Consolas, DejaVu Sans Mono, Courier New, monospace" font-size="7.8" fill="#e7e0d1" text-anchor="middle">QUAD</text><rect x="284.7" y="416.0" width="53.3" height="26.0" rx="3" fill="#202327" stroke="#2b2f33" stroke-width="1"/><line x1="287.67" y1="417.50" x2="335.00" y2="417.50" stroke="#ffffff" stroke-width="1.0" stroke-linecap="round" opacity="0.08"/><text x="311.3" y="432.0" font-family="Consolas, DejaVu Sans Mono, Courier New, monospace" font-size="7.8" fill="#e7e0d1" text-anchor="middle">LIN</text><rect x="480.0" y="102.0" width="456.0" height="418.0" rx="5" fill="url(#plate)" stroke="#0a0b0c" stroke-width="1.2"/><line x1="487.00" y1="103.50" x2="929.00" y2="103.50" stroke="#ffffff" stroke-width="1" stroke-linecap="round" opacity="0.08"/><line x1="487.00" y1="518.50" x2="929.00" y2="518.50" stroke="#000000" stroke-width="1.6" stroke-linecap="round" opacity="0.45"/><circle cx="489.50" cy="111.50" r="3.00" fill="#000000" opacity="0.4"/><circle cx="489.00" cy="111.00" r="3.00" fill="#b3ac9a" stroke="#000000" stroke-width="0.6"/><circle cx="488.10" cy="110.10" r="1.05" fill="#f4f0e6" opacity="0.5"/><line x1="487.20" y1="109.20" x2="490.80" y2="112.80" stroke="#3a362f" stroke-width="0.9" stroke-linecap="round"/><circle cx="927.50" cy="111.50" r="3.00" fill="#000000" opacity="0.4"/><circle cx="927.00" cy="111.00" r="3.00" fill="#b3ac9a" stroke="#000000" stroke-width="0.6"/><circle cx="926.10" cy="110.10" r="1.05" fill="#f4f0e6" opacity="0.5"/><line x1="925.20" y1="109.20" x2="928.80" y2="112.80" stroke="#3a362f" stroke-width="0.9" stroke-linecap="round"/><circle cx="489.50" cy="511.50" r="3.00" fill="#000000" opacity="0.4"/><circle cx="489.00" cy="511.00" r="3.00" fill="#b3ac9a" stroke="#000000" stroke-width="0.6"/><circle cx="488.10" cy="510.10" r="1.05" fill="#f4f0e6" opacity="0.5"/><line x1="487.20" y1="509.20" x2="490.80" y2="512.80" stroke="#3a362f" stroke-width="0.9" stroke-linecap="round"/><circle cx="927.50" cy="511.50" r="3.00" fill="#000000" opacity="0.4"/><circle cx="927.00" cy="511.00" r="3.00" fill="#b3ac9a" stroke="#000000" stroke-width="0.6"/><circle cx="926.10" cy="510.10" r="1.05" fill="#f4f0e6" opacity="0.5"/><line x1="925.20" y1="509.20" x2="928.80" y2="512.80" stroke="#3a362f" stroke-width="0.9" stroke-linecap="round"/><rect x="911.0" y="110.0" width="10.0" height="10.0" rx="2" fill="#0a0c0e" stroke="#000000" stroke-width="1"/><circle cx="916.00" cy="115.00" r="3.00" fill="#b07fb0" opacity="0.85"/><text x="498.0" y="117.0" font-family="Segoe UI, DejaVu Sans, Verdana, sans-serif" font-size="12.5" fill="#000000" text-anchor="start" font-weight="700">CHARACTER</text><text x="498.0" y="116.0" font-family="Segoe UI, DejaVu Sans, Verdana, sans-serif" font-size="12.5" fill="#e7e0d1" text-anchor="start" font-weight="700">CHARACTER</text><line x1="490.00" y1="123.00" x2="926.00" y2="123.00" stroke="#000000" stroke-width="1" stroke-linecap="round" opacity="0.4"/><line x1="569.59" y1="270.41" x2="565.00" y2="275.00" stroke="#8d9296" stroke-width="1.3" stroke-linecap="round"/><line x1="559.10" y1="253.29" x2="552.92" y2="255.30" stroke="#5b5f63" stroke-width="1.0" stroke-linecap="round"/><line x1="557.53" y1="233.27" x2="551.11" y2="232.26" stroke="#5b5f63" stroke-width="1.0" stroke-linecap="round"/><line x1="565.21" y1="214.73" x2="559.95" y2="210.90" stroke="#5b5f63" stroke-width="1.0" stroke-linecap="round"/><line x1="580.48" y1="201.69" x2="577.53" y2="195.90" stroke="#5b5f63" stroke-width="1.0" stroke-linecap="round"/><line x1="600.00" y1="197.00" x2="600.00" y2="190.50" stroke="#8d9296" stroke-width="1.3" stroke-linecap="round"/><line x1="619.52" y1="201.69" x2="622.47" y2="195.90" stroke="#5b5f63" stroke-width="1.0" stroke-linecap="round"/><line x1="634.79" y1="214.73" x2="640.05" y2="210.90" stroke="#5b5f63" stroke-width="1.0" stroke-linecap="round"/><line x1="642.47" y1="233.27" x2="648.89" y2="232.26" stroke="#5b5f63" stroke-width="1.0" stroke-linecap="round"/><line x1="640.90" y1="253.29" x2="647.08" y2="255.30" stroke="#5b5f63" stroke-width="1.0" stroke-linecap="round"/><line x1="630.41" y1="270.41" x2="635.00" y2="275.00" stroke="#8d9296" stroke-width="1.3" stroke-linecap="round"/><circle cx="600.00" cy="242.50" r="50.00" fill="#000000" opacity="0.35"/><circle cx="600.00" cy="240.00" r="50.00" fill="url(#bakelite)" stroke="#000000" stroke-width="1.0"/><line x1="600.00" y1="200.00" x2="600.00" y2="191.50" stroke="#000000" stroke-width="1.6" stroke-linecap="round" opacity="0.3"/><line x1="611.27" y1="201.62" x2="613.66" y2="193.46" stroke="#000000" stroke-width="1.6" stroke-linecap="round" opacity="0.3"/><line x1="621.63" y1="206.35" x2="626.22" y2="199.20" stroke="#000000" stroke-width="1.6" stroke-linecap="round" opacity="0.3"/><line x1="630.23" y1="213.81" x2="636.65" y2="208.24" stroke="#000000" stroke-width="1.6" stroke-linecap="round" opacity="0.3"/><line x1="636.39" y1="223.38" x2="644.12" y2="219.85" stroke="#000000" stroke-width="1.6" stroke-linecap="round" opacity="0.3"/><line x1="639.59" y1="234.31" x2="648.01" y2="233.10" stroke="#000000" stroke-width="1.6" stroke-linecap="round" opacity="0.3"/><line x1="639.59" y1="245.69" x2="648.01" y2="246.90" stroke="#000000" stroke-width="1.6" stroke-linecap="round" opacity="0.3"/><line x1="636.39" y1="256.62" x2="644.12" y2="260.15" stroke="#000000" stroke-width="1.6" stroke-linecap="round" opacity="0.3"/><line x1="630.23" y1="266.19" x2="636.65" y2="271.76" stroke="#000000" stroke-width="1.6" stroke-linecap="round" opacity="0.3"/><line x1="621.63" y1="273.65" x2="626.22" y2="280.80" stroke="#000000" stroke-width="1.6" stroke-linecap="round" opacity="0.3"/><line x1="611.27" y1="278.38" x2="613.66" y2="286.54" stroke="#000000" stroke-width="1.6" stroke-linecap="round" opacity="0.3"/><line x1="600.00" y1="280.00" x2="600.00" y2="288.50" stroke="#000000" stroke-width="1.6" stroke-linecap="round" opacity="0.3"/><line x1="588.73" y1="278.38" x2="586.34" y2="286.54" stroke="#000000" stroke-width="1.6" stroke-linecap="round" opacity="0.3"/><line x1="578.37" y1="273.65" x2="573.78" y2="280.80" stroke="#000000" stroke-width="1.6" stroke-linecap="round" opacity="0.3"/><line x1="569.77" y1="266.19" x2="563.35" y2="271.76" stroke="#000000" stroke-width="1.6" stroke-linecap="round" opacity="0.3"/><line x1="563.61" y1="256.62" x2="555.88" y2="260.15" stroke="#000000" stroke-width="1.6" stroke-linecap="round" opacity="0.3"/><line x1="560.41" y1="245.69" x2="551.99" y2="246.90" stroke="#000000" stroke-width="1.6" stroke-linecap="round" opacity="0.3"/><line x1="560.41" y1="234.31" x2="551.99" y2="233.10" stroke="#000000" stroke-width="1.6" stroke-linecap="round" opacity="0.3"/><line x1="563.61" y1="223.38" x2="555.88" y2="219.85" stroke="#000000" stroke-width="1.6" stroke-linecap="round" opacity="0.3"/><line x1="569.77" y1="213.81" x2="563.35" y2="208.24" stroke="#000000" stroke-width="1.6" stroke-linecap="round" opacity="0.3"/><line x1="578.37" y1="206.35" x2="573.78" y2="199.20" stroke="#000000" stroke-width="1.6" stroke-linecap="round" opacity="0.3"/><line x1="588.73" y1="201.62" x2="586.34" y2="193.46" stroke="#000000" stroke-width="1.6" stroke-linecap="round" opacity="0.3"/><circle cx="600.00" cy="240.00" r="37.00" fill="url(#bakelite)" stroke="#4a463f" stroke-width="1.3"/><circle cx="590.75" cy="227.05" r="18.50" fill="#ffffff" opacity="0.09"/><line x1="600.00" y1="241.00" x2="568.18" y2="272.82" stroke="#000000" stroke-width="3.0" stroke-linecap="round" opacity="0.45"/><line x1="600.00" y1="240.00" x2="568.18" y2="271.82" stroke="#e7e0d1" stroke-width="2.2" stroke-linecap="round"/><circle cx="568.18" cy="271.82" r="1.60" fill="#e7e0d1"/><circle cx="600.00" cy="240.00" r="11.10" fill="url(#chrome)" stroke="#4a463f" stroke-width="0.8"/><circle cx="596.67" cy="236.12" r="3.88" fill="#ffffff" opacity="0.45"/><text x="600.0" y="186.0" font-family="Segoe UI, DejaVu Sans, Verdana, sans-serif" font-size="9.5" fill="#000000" text-anchor="middle" font-weight="600">MOD VEL</text><text x="600.0" y="185.0" font-family="Segoe UI, DejaVu Sans, Verdana, sans-serif" font-size="9.5" fill="#9a948a" text-anchor="middle" font-weight="600">MOD VEL</text><text x="600.0" y="301.0" font-family="Consolas, DejaVu Sans Mono, Courier New, monospace" font-size="11.0" fill="#e7e0d1" text-anchor="middle">0%</text><line x1="785.59" y1="270.41" x2="781.00" y2="275.00" stroke="#8d9296" stroke-width="1.3" stroke-linecap="round"/><line x1="775.10" y1="253.29" x2="768.92" y2="255.30" stroke="#5b5f63" stroke-width="1.0" stroke-linecap="round"/><line x1="773.53" y1="233.27" x2="767.11" y2="232.26" stroke="#5b5f63" stroke-width="1.0" stroke-linecap="round"/><line x1="781.21" y1="214.73" x2="775.95" y2="210.90" stroke="#5b5f63" stroke-width="1.0" stroke-linecap="round"/><line x1="796.48" y1="201.69" x2="793.53" y2="195.90" stroke="#5b5f63" stroke-width="1.0" stroke-linecap="round"/><line x1="816.00" y1="197.00" x2="816.00" y2="190.50" stroke="#8d9296" stroke-width="1.3" stroke-linecap="round"/><line x1="835.52" y1="201.69" x2="838.47" y2="195.90" stroke="#5b5f63" stroke-width="1.0" stroke-linecap="round"/><line x1="850.79" y1="214.73" x2="856.05" y2="210.90" stroke="#5b5f63" stroke-width="1.0" stroke-linecap="round"/><line x1="858.47" y1="233.27" x2="864.89" y2="232.26" stroke="#5b5f63" stroke-width="1.0" stroke-linecap="round"/><line x1="856.90" y1="253.29" x2="863.08" y2="255.30" stroke="#5b5f63" stroke-width="1.0" stroke-linecap="round"/><line x1="846.41" y1="270.41" x2="851.00" y2="275.00" stroke="#8d9296" stroke-width="1.3" stroke-linecap="round"/><circle cx="816.00" cy="242.50" r="50.00" fill="#000000" opacity="0.35"/><circle cx="816.00" cy="240.00" r="50.00" fill="url(#bakelite)" stroke="#000000" stroke-width="1.0"/><line x1="816.00" y1="200.00" x2="816.00" y2="191.50" stroke="#000000" stroke-width="1.6" stroke-linecap="round" opacity="0.3"/><line x1="827.27" y1="201.62" x2="829.66" y2="193.46" stroke="#000000" stroke-width="1.6" stroke-linecap="round" opacity="0.3"/><line x1="837.63" y1="206.35" x2="842.22" y2="199.20" stroke="#000000" stroke-width="1.6" stroke-linecap="round" opacity="0.3"/><line x1="846.23" y1="213.81" x2="852.65" y2="208.24" stroke="#000000" stroke-width="1.6" stroke-linecap="round" opacity="0.3"/><line x1="852.39" y1="223.38" x2="860.12" y2="219.85" stroke="#000000" stroke-width="1.6" stroke-linecap="round" opacity="0.3"/><line x1="855.59" y1="234.31" x2="864.01" y2="233.10" stroke="#000000" stroke-width="1.6" stroke-linecap="round" opacity="0.3"/><line x1="855.59" y1="245.69" x2="864.01" y2="246.90" stroke="#000000" stroke-width="1.6" stroke-linecap="round" opacity="0.3"/><line x1="852.39" y1="256.62" x2="860.12" y2="260.15" stroke="#000000" stroke-width="1.6" stroke-linecap="round" opacity="0.3"/><line x1="846.23" y1="266.19" x2="852.65" y2="271.76" stroke="#000000" stroke-width="1.6" stroke-linecap="round" opacity="0.3"/><line x1="837.63" y1="273.65" x2="842.22" y2="280.80" stroke="#000000" stroke-width="1.6" stroke-linecap="round" opacity="0.3"/><line x1="827.27" y1="278.38" x2="829.66" y2="286.54" stroke="#000000" stroke-width="1.6" stroke-linecap="round" opacity="0.3"/><line x1="816.00" y1="280.00" x2="816.00" y2="288.50" stroke="#000000" stroke-width="1.6" stroke-linecap="round" opacity="0.3"/><line x1="804.73" y1="278.38" x2="802.34" y2="286.54" stroke="#000000" stroke-width="1.6" stroke-linecap="round" opacity="0.3"/><line x1="794.37" y1="273.65" x2="789.78" y2="280.80" stroke="#000000" stroke-width="1.6" stroke-linecap="round" opacity="0.3"/><line x1="785.77" y1="266.19" x2="779.35" y2="271.76" stroke="#000000" stroke-width="1.6" stroke-linecap="round" opacity="0.3"/><line x1="779.61" y1="256.62" x2="771.88" y2="260.15" stroke="#000000" stroke-width="1.6" stroke-linecap="round" opacity="0.3"/><line x1="776.41" y1="245.69" x2="767.99" y2="246.90" stroke="#000000" stroke-width="1.6" stroke-linecap="round" opacity="0.3"/><line x1="776.41" y1="234.31" x2="767.99" y2="233.10" stroke="#000000" stroke-width="1.6" stroke-linecap="round" opacity="0.3"/><line x1="779.61" y1="223.38" x2="771.88" y2="219.85" stroke="#000000" stroke-width="1.6" stroke-linecap="round" opacity="0.3"/><line x1="785.77" y1="213.81" x2="779.35" y2="208.24" stroke="#000000" stroke-width="1.6" stroke-linecap="round" opacity="0.3"/><line x1="794.37" y1="206.35" x2="789.78" y2="199.20" stroke="#000000" stroke-width="1.6" stroke-linecap="round" opacity="0.3"/><line x1="804.73" y1="201.62" x2="802.34" y2="193.46" stroke="#000000" stroke-width="1.6" stroke-linecap="round" opacity="0.3"/><circle cx="816.00" cy="240.00" r="37.00" fill="url(#bakelite)" stroke="#4a463f" stroke-width="1.3"/><circle cx="806.75" cy="227.05" r="18.50" fill="#ffffff" opacity="0.09"/><line x1="816.00" y1="241.00" x2="784.18" y2="272.82" stroke="#000000" stroke-width="3.0" stroke-linecap="round" opacity="0.45"/><line x1="816.00" y1="240.00" x2="784.18" y2="271.82" stroke="#e7e0d1" stroke-width="2.2" stroke-linecap="round"/><circle cx="784.18" cy="271.82" r="1.60" fill="#e7e0d1"/><circle cx="816.00" cy="240.00" r="11.10" fill="url(#chrome)" stroke="#4a463f" stroke-width="0.8"/><circle cx="812.67" cy="236.12" r="3.88" fill="#ffffff" opacity="0.45"/><text x="816.0" y="186.0" font-family="Segoe UI, DejaVu Sans, Verdana, sans-serif" font-size="9.5" fill="#000000" text-anchor="middle" font-weight="600">AMP VEL</text><text x="816.0" y="185.0" font-family="Segoe UI, DejaVu Sans, Verdana, sans-serif" font-size="9.5" fill="#9a948a" text-anchor="middle" font-weight="600">AMP VEL</text><text x="816.0" y="301.0" font-family="Consolas, DejaVu Sans Mono, Courier New, monospace" font-size="11.0" fill="#e7e0d1" text-anchor="middle">0%</text><line x1="677.59" y1="450.41" x2="673.00" y2="455.00" stroke="#8d9296" stroke-width="1.3" stroke-linecap="round"/><line x1="667.10" y1="433.29" x2="660.92" y2="435.30" stroke="#5b5f63" stroke-width="1.0" stroke-linecap="round"/><line x1="665.53" y1="413.27" x2="659.11" y2="412.26" stroke="#5b5f63" stroke-width="1.0" stroke-linecap="round"/><line x1="673.21" y1="394.73" x2="667.95" y2="390.90" stroke="#5b5f63" stroke-width="1.0" stroke-linecap="round"/><line x1="688.48" y1="381.69" x2="685.53" y2="375.90" stroke="#5b5f63" stroke-width="1.0" stroke-linecap="round"/><line x1="708.00" y1="377.00" x2="708.00" y2="370.50" stroke="#8d9296" stroke-width="1.3" stroke-linecap="round"/><line x1="727.52" y1="381.69" x2="730.47" y2="375.90" stroke="#5b5f63" stroke-width="1.0" stroke-linecap="round"/><line x1="742.79" y1="394.73" x2="748.05" y2="390.90" stroke="#5b5f63" stroke-width="1.0" stroke-linecap="round"/><line x1="750.47" y1="413.27" x2="756.89" y2="412.26" stroke="#5b5f63" stroke-width="1.0" stroke-linecap="round"/><line x1="748.90" y1="433.29" x2="755.08" y2="435.30" stroke="#5b5f63" stroke-width="1.0" stroke-linecap="round"/><line x1="738.41" y1="450.41" x2="743.00" y2="455.00" stroke="#8d9296" stroke-width="1.3" stroke-linecap="round"/><circle cx="708.00" cy="422.50" r="50.00" fill="#000000" opacity="0.35"/><circle cx="708.00" cy="420.00" r="50.00" fill="url(#bakelite)" stroke="#000000" stroke-width="1.0"/><line x1="708.00" y1="380.00" x2="708.00" y2="371.50" stroke="#000000" stroke-width="1.6" stroke-linecap="round" opacity="0.3"/><line x1="719.27" y1="381.62" x2="721.66" y2="373.46" stroke="#000000" stroke-width="1.6" stroke-linecap="round" opacity="0.3"/><line x1="729.63" y1="386.35" x2="734.22" y2="379.20" stroke="#000000" stroke-width="1.6" stroke-linecap="round" opacity="0.3"/><line x1="738.23" y1="393.81" x2="744.65" y2="388.24" stroke="#000000" stroke-width="1.6" stroke-linecap="round" opacity="0.3"/><line x1="744.39" y1="403.38" x2="752.12" y2="399.85" stroke="#000000" stroke-width="1.6" stroke-linecap="round" opacity="0.3"/><line x1="747.59" y1="414.31" x2="756.01" y2="413.10" stroke="#000000" stroke-width="1.6" stroke-linecap="round" opacity="0.3"/><line x1="747.59" y1="425.69" x2="756.01" y2="426.90" stroke="#000000" stroke-width="1.6" stroke-linecap="round" opacity="0.3"/><line x1="744.39" y1="436.62" x2="752.12" y2="440.15" stroke="#000000" stroke-width="1.6" stroke-linecap="round" opacity="0.3"/><line x1="738.23" y1="446.19" x2="744.65" y2="451.76" stroke="#000000" stroke-width="1.6" stroke-linecap="round" opacity="0.3"/><line x1="729.63" y1="453.65" x2="734.22" y2="460.80" stroke="#000000" stroke-width="1.6" stroke-linecap="round" opacity="0.3"/><line x1="719.27" y1="458.38" x2="721.66" y2="466.54" stroke="#000000" stroke-width="1.6" stroke-linecap="round" opacity="0.3"/><line x1="708.00" y1="460.00" x2="708.00" y2="468.50" stroke="#000000" stroke-width="1.6" stroke-linecap="round" opacity="0.3"/><line x1="696.73" y1="458.38" x2="694.34" y2="466.54" stroke="#000000" stroke-width="1.6" stroke-linecap="round" opacity="0.3"/><line x1="686.37" y1="453.65" x2="681.78" y2="460.80" stroke="#000000" stroke-width="1.6" stroke-linecap="round" opacity="0.3"/><line x1="677.77" y1="446.19" x2="671.35" y2="451.76" stroke="#000000" stroke-width="1.6" stroke-linecap="round" opacity="0.3"/><line x1="671.61" y1="436.62" x2="663.88" y2="440.15" stroke="#000000" stroke-width="1.6" stroke-linecap="round" opacity="0.3"/><line x1="668.41" y1="425.69" x2="659.99" y2="426.90" stroke="#000000" stroke-width="1.6" stroke-linecap="round" opacity="0.3"/><line x1="668.41" y1="414.31" x2="659.99" y2="413.10" stroke="#000000" stroke-width="1.6" stroke-linecap="round" opacity="0.3"/><line x1="671.61" y1="403.38" x2="663.88" y2="399.85" stroke="#000000" stroke-width="1.6" stroke-linecap="round" opacity="0.3"/><line x1="677.77" y1="393.81" x2="671.35" y2="388.24" stroke="#000000" stroke-width="1.6" stroke-linecap="round" opacity="0.3"/><line x1="686.37" y1="386.35" x2="681.78" y2="379.20" stroke="#000000" stroke-width="1.6" stroke-linecap="round" opacity="0.3"/><line x1="696.73" y1="381.62" x2="694.34" y2="373.46" stroke="#000000" stroke-width="1.6" stroke-linecap="round" opacity="0.3"/><circle cx="708.00" cy="420.00" r="37.00" fill="url(#bakelite)" stroke="#4a463f" stroke-width="1.3"/><circle cx="698.75" cy="407.05" r="18.50" fill="#ffffff" opacity="0.09"/><line x1="708.00" y1="421.00" x2="676.18" y2="452.82" stroke="#000000" stroke-width="3.0" stroke-linecap="round" opacity="0.45"/><line x1="708.00" y1="420.00" x2="676.18" y2="451.82" stroke="#e7e0d1" stroke-width="2.2" stroke-linecap="round"/><circle cx="676.18" cy="451.82" r="1.60" fill="#e7e0d1"/><circle cx="708.00" cy="420.00" r="11.10" fill="url(#chrome)" stroke="#4a463f" stroke-width="0.8"/><circle cx="704.67" cy="416.12" r="3.88" fill="#ffffff" opacity="0.45"/><text x="708.0" y="366.0" font-family="Segoe UI, DejaVu Sans, Verdana, sans-serif" font-size="9.5" fill="#000000" text-anchor="middle" font-weight="600">AT LFO AMT</text><text x="708.0" y="365.0" font-family="Segoe UI, DejaVu Sans, Verdana, sans-serif" font-size="9.5" fill="#9a948a" text-anchor="middle" font-weight="600">AT LFO AMT</text><text x="708.0" y="481.0" font-family="Consolas, DejaVu Sans Mono, Courier New, monospace" font-size="11.0" fill="#e7e0d1" text-anchor="middle">0%</text><rect x="14.0" y="532.0" width="932.0" height="76.0" rx="5" fill="url(#plate)" stroke="#0a0b0c" stroke-width="1.2"/><line x1="21.00" y1="533.50" x2="939.00" y2="533.50" stroke="#ffffff" stroke-width="1" stroke-linecap="round" opacity="0.08"/><line x1="21.00" y1="606.50" x2="939.00" y2="606.50" stroke="#000000" stroke-width="1.6" stroke-linecap="round" opacity="0.45"/><circle cx="23.50" cy="541.50" r="3.00" fill="#000000" opacity="0.4"/><circle cx="23.00" cy="541.00" r="3.00" fill="#b3ac9a" stroke="#000000" stroke-width="0.6"/><circle cx="22.10" cy="540.10" r="1.05" fill="#f4f0e6" opacity="0.5"/><line x1="21.20" y1="539.20" x2="24.80" y2="542.80" stroke="#3a362f" stroke-width="0.9" stroke-linecap="round"/><circle cx="937.50" cy="541.50" r="3.00" fill="#000000" opacity="0.4"/><circle cx="937.00" cy="541.00" r="3.00" fill="#b3ac9a" stroke="#000000" stroke-width="0.6"/><circle cx="936.10" cy="540.10" r="1.05" fill="#f4f0e6" opacity="0.5"/><line x1="935.20" y1="539.20" x2="938.80" y2="542.80" stroke="#3a362f" stroke-width="0.9" stroke-linecap="round"/><circle cx="23.50" cy="599.50" r="3.00" fill="#000000" opacity="0.4"/><circle cx="23.00" cy="599.00" r="3.00" fill="#b3ac9a" stroke="#000000" stroke-width="0.6"/><circle cx="22.10" cy="598.10" r="1.05" fill="#f4f0e6" opacity="0.5"/><line x1="21.20" y1="597.20" x2="24.80" y2="600.80" stroke="#3a362f" stroke-width="0.9" stroke-linecap="round"/><circle cx="937.50" cy="599.50" r="3.00" fill="#000000" opacity="0.4"/><circle cx="937.00" cy="599.00" r="3.00" fill="#b3ac9a" stroke="#000000" stroke-width="0.6"/><circle cx="936.10" cy="598.10" r="1.05" fill="#f4f0e6" opacity="0.5"/><line x1="935.20" y1="597.20" x2="938.80" y2="600.80" stroke="#3a362f" stroke-width="0.9" stroke-linecap="round"/><text x="32.0" y="547.0" font-family="Segoe UI, DejaVu Sans, Verdana, sans-serif" font-size="9.0" fill="#9a948a" text-anchor="start" font-weight="600">KEYBOARD</text><rect x="838.0" y="540.0" width="34.0" height="12.0" rx="3" fill="#202327" stroke="#2b2f33" stroke-width="1"/><text x="855.0" y="549.0" font-family="Consolas, DejaVu Sans Mono, Courier New, monospace" font-size="7.0" fill="#9a948a" text-anchor="middle">OCT -</text><rect x="876.0" y="540.0" width="34.0" height="12.0" rx="3" fill="#202327" stroke="#2b2f33" stroke-width="1"/><text x="893.0" y="549.0" font-family="Consolas, DejaVu Sans Mono, Courier New, monospace" font-size="7.0" fill="#9a948a" text-anchor="middle">OCT +</text><rect x="920.0" y="540.0" width="12.0" height="12.0" rx="2" fill="#0a0c0e" stroke="#000000" stroke-width="1"/><circle cx="926.00" cy="546.00" r="3.50" fill="#d99a3f" opacity="0.85"/><rect x="24.5" y="556.0" width="37.0" height="46.0" rx="1.5" fill="#e9e5da" stroke="#3a3e42" stroke-width="0.6"/><rect x="62.5" y="556.0" width="37.0" height="46.0" rx="1.5" fill="#e9e5da" stroke="#3a3e42" stroke-width="0.6"/><rect x="100.5" y="556.0" width="37.0" height="46.0" rx="1.5" fill="#e9e5da" stroke="#3a3e42" stroke-width="0.6"/><rect x="138.5" y="556.0" width="37.0" height="46.0" rx="1.5" fill="#e9e5da" stroke="#3a3e42" stroke-width="0.6"/><rect x="176.5" y="556.0" width="37.0" height="46.0" rx="1.5" fill="#e9e5da" stroke="#3a3e42" stroke-width="0.6"/><rect x="214.5" y="556.0" width="37.0" height="46.0" rx="1.5" fill="#e9e5da" stroke="#3a3e42" stroke-width="0.6"/><rect x="252.5" y="556.0" width="37.0" height="46.0" rx="1.5" fill="#e9e5da" stroke="#3a3e42" stroke-width="0.6"/><rect x="290.5" y="556.0" width="37.0" height="46.0" rx="1.5" fill="#e9e5da" stroke="#3a3e42" stroke-width="0.6"/><rect x="328.5" y="556.0" width="37.0" height="46.0" rx="1.5" fill="#e9e5da" stroke="#3a3e42" stroke-width="0.6"/><rect x="366.5" y="556.0" width="37.0" height="46.0" rx="1.5" fill="#e9e5da" stroke="#3a3e42" stroke-width="0.6"/><rect x="404.5" y="556.0" width="37.0" height="46.0" rx="1.5" fill="#e9e5da" stroke="#3a3e42" stroke-width="0.6"/><rect x="442.5" y="556.0" width="37.0" height="46.0" rx="1.5" fill="#e9e5da" stroke="#3a3e42" stroke-width="0.6"/><rect x="480.5" y="556.0" width="37.0" height="46.0" rx="1.5" fill="#e9e5da" stroke="#3a3e42" stroke-width="0.6"/><rect x="518.5" y="556.0" width="37.0" height="46.0" rx="1.5" fill="#e9e5da" stroke="#3a3e42" stroke-width="0.6"/><rect x="556.5" y="556.0" width="37.0" height="46.0" rx="1.5" fill="#e9e5da" stroke="#3a3e42" stroke-width="0.6"/><rect x="594.5" y="556.0" width="37.0" height="46.0" rx="1.5" fill="#e9e5da" stroke="#3a3e42" stroke-width="0.6"/><rect x="632.5" y="556.0" width="37.0" height="46.0" rx="1.5" fill="#e9e5da" stroke="#3a3e42" stroke-width="0.6"/><rect x="670.5" y="556.0" width="37.0" height="46.0" rx="1.5" fill="#e9e5da" stroke="#3a3e42" stroke-width="0.6"/><rect x="708.5" y="556.0" width="37.0" height="46.0" rx="1.5" fill="#e9e5da" stroke="#3a3e42" stroke-width="0.6"/><rect x="746.5" y="556.0" width="37.0" height="46.0" rx="1.5" fill="#e9e5da" stroke="#3a3e42" stroke-width="0.6"/><rect x="784.5" y="556.0" width="37.0" height="46.0" rx="1.5" fill="#e9e5da" stroke="#3a3e42" stroke-width="0.6"/><rect x="822.5" y="556.0" width="37.0" height="46.0" rx="1.5" fill="#e9e5da" stroke="#3a3e42" stroke-width="0.6"/><rect x="860.5" y="556.0" width="37.0" height="46.0" rx="1.5" fill="#e9e5da" stroke="#3a3e42" stroke-width="0.6"/><rect x="898.5" y="556.0" width="37.0" height="46.0" rx="1.5" fill="#e9e5da" stroke="#3a3e42" stroke-width="0.6"/><rect x="49.1" y="556.0" width="23.6" height="27.6" rx="1.5" fill="#14161a" stroke="#000000" stroke-width="0.6"/><rect x="87.1" y="556.0" width="23.6" height="27.6" rx="1.5" fill="#14161a" stroke="#000000" stroke-width="0.6"/><rect x="163.1" y="556.0" width="23.6" height="27.6" rx="1.5" fill="#14161a" stroke="#000000" stroke-width="0.6"/><rect x="201.1" y="556.0" width="23.6" height="27.6" rx="1.5" fill="#14161a" stroke="#000000" stroke-width="0.6"/><rect x="239.1" y="556.0" width="23.6" height="27.6" rx="1.5" fill="#14161a" stroke="#000000" stroke-width="0.6"/><rect x="315.1" y="556.0" width="23.6" height="27.6" rx="1.5" fill="#14161a" stroke="#000000" stroke-width="0.6"/><rect x="353.1" y="556.0" width="23.6" height="27.6" rx="1.5" fill="#14161a" stroke="#000000" stroke-width="0.6"/><rect x="429.1" y="556.0" width="23.6" height="27.6" rx="1.5" fill="#14161a" stroke="#000000" stroke-width="0.6"/><rect x="467.1" y="556.0" width="23.6" height="27.6" rx="1.5" fill="#14161a" stroke="#000000" stroke-width="0.6"/><rect x="505.1" y="556.0" width="23.6" height="27.6" rx="1.5" fill="#14161a" stroke="#000000" stroke-width="0.6"/><rect x="0.0" y="0.0" width="10.0" height="620.0" rx="4" fill="#1c1f22"/><line x1="0.50" y1="0.00" x2="0.50" y2="620.00" stroke="#ffffff" stroke-width="1" stroke-linecap="round" opacity="0.05"/><line x1="9.50" y1="0.00" x2="9.50" y2="620.00" stroke="#000000" stroke-width="1" stroke-linecap="round" opacity="0.6"/><rect x="950.0" y="0.0" width="10.0" height="620.0" rx="4" fill="#1c1f22"/><line x1="950.50" y1="0.00" x2="950.50" y2="620.00" stroke="#ffffff" stroke-width="1" stroke-linecap="round" opacity="0.05"/><line x1="959.50" y1="0.00" x2="959.50" y2="620.00" stroke="#000000" stroke-width="1" stroke-linecap="round" opacity="0.6"/><circle cx="5.50" cy="60.50" r="3.00" fill="#000000" opacity="0.4"/><circle cx="5.00" cy="60.00" r="3.00" fill="#b3ac9a" stroke="#000000" stroke-width="0.6"/><circle cx="4.10" cy="59.10" r="1.05" fill="#f4f0e6" opacity="0.5"/><line x1="3.20" y1="58.20" x2="6.80" y2="61.80" stroke="#3a362f" stroke-width="0.9" stroke-linecap="round"/><circle cx="955.50" cy="60.50" r="3.00" fill="#000000" opacity="0.4"/><circle cx="955.00" cy="60.00" r="3.00" fill="#b3ac9a" stroke="#000000" stroke-width="0.6"/><circle cx="954.10" cy="59.10" r="1.05" fill="#f4f0e6" opacity="0.5"/><line x1="953.20" y1="58.20" x2="956.80" y2="61.80" stroke="#3a362f" stroke-width="0.9" stroke-linecap="round"/><circle cx="5.50" cy="310.50" r="3.00" fill="#000000" opacity="0.4"/><circle cx="5.00" cy="310.00" r="3.00" fill="#b3ac9a" stroke="#000000" stroke-width="0.6"/><circle cx="4.10" cy="309.10" r="1.05" fill="#f4f0e6" opacity="0.5"/><line x1="3.20" y1="308.20" x2="6.80" y2="311.80" stroke="#3a362f" stroke-width="0.9" stroke-linecap="round"/><circle cx="955.50" cy="310.50" r="3.00" fill="#000000" opacity="0.4"/><circle cx="955.00" cy="310.00" r="3.00" fill="#b3ac9a" stroke="#000000" stroke-width="0.6"/><circle cx="954.10" cy="309.10" r="1.05" fill="#f4f0e6" opacity="0.5"/><line x1="953.20" y1="308.20" x2="956.80" y2="311.80" stroke="#3a362f" stroke-width="0.9" stroke-linecap="round"/><circle cx="5.50" cy="560.50" r="3.00" fill="#000000" opacity="0.4"/><circle cx="5.00" cy="560.00" r="3.00" fill="#b3ac9a" stroke="#000000" stroke-width="0.6"/><circle cx="4.10" cy="559.10" r="1.05" fill="#f4f0e6" opacity="0.5"/><line x1="3.20" y1="558.20" x2="6.80" y2="561.80" stroke="#3a362f" stroke-width="0.9" stroke-linecap="round"/><circle cx="955.50" cy="560.50" r="3.00" fill="#000000" opacity="0.4"/><circle cx="955.00" cy="560.00" r="3.00" fill="#b3ac9a" stroke="#000000" stroke-width="0.6"/><circle cx="954.10" cy="559.10" r="1.05" fill="#f4f0e6" opacity="0.5"/><line x1="953.20" y1="558.20" x2="956.80" y2="561.80" stroke="#3a362f" stroke-width="0.9" stroke-linecap="round"/></svg>
